<svg width="417" height="300" viewBox="0 0 417 300" fill="none" xmlns="http://www.w3.org/2000/svg">
<g filter="url(#filter0_di_2_11)">
<path d="M162.652 266C146.852 266 132.152 263.5 118.552 258.5C104.952 253.3 93.0516 245.9 82.8516 236.3C72.6516 226.7 64.7516 215.3 59.1516 202.1C53.5516 188.7 50.7516 174 50.7516 158C50.7516 142.8 53.7516 128.7 59.7516 115.7C65.7516 102.7 73.9516 91.4 84.3516 81.8C94.7516 72 106.752 64.5 120.352 59.3C133.952 53.9 148.452 51.2 163.852 51.2C175.852 51.2 187.452 52.9 198.652 56.3C210.052 59.5 220.252 63.8 229.252 69.2C238.452 74.6 245.852 80.5 251.452 86.9L231.052 112.1C224.452 106.1 217.552 101 210.352 96.8C203.152 92.4 195.552 89.1 187.552 86.9C179.552 84.5 171.052 83.3 162.052 83.3C151.852 83.3 142.052 85.1 132.652 88.7C123.252 92.3 114.852 97.4 107.452 104C100.252 110.4 94.4516 118.2 90.0516 127.4C85.8516 136.6 83.7516 146.8 83.7516 158C83.7516 170 85.8516 180.7 90.0516 190.1C94.4516 199.5 100.452 207.5 108.052 214.1C115.852 220.5 124.652 225.4 134.452 228.8C144.452 232.2 155.052 233.9 166.252 233.9C176.052 233.9 184.952 232.7 192.952 230.3C200.952 227.7 208.252 224.4 214.852 220.4C221.452 216.2 227.452 211.9 232.852 207.5L248.752 234.2C243.552 239.2 236.452 244.2 227.452 249.2C218.652 254 208.652 258 197.452 261.2C186.452 264.4 174.852 266 162.652 266Z" fill="#0085FF"/>
<path d="M265.381 234.55C262.044 234.55 259.074 233.908 256.471 232.625C253.904 231.342 251.869 229.563 250.366 227.29C248.899 225.017 248.166 222.432 248.166 219.535C248.166 216.602 248.899 214.017 250.366 211.78C251.869 209.507 253.904 207.728 256.471 206.445C259.074 205.162 262.044 204.52 265.381 204.52C268.718 204.52 271.669 205.162 274.236 206.445C276.803 207.728 278.819 209.507 280.286 211.78C281.789 214.017 282.541 216.602 282.541 219.535C282.541 222.432 281.789 225.017 280.286 227.29C278.819 229.563 276.803 231.342 274.236 232.625C271.669 233.908 268.718 234.55 265.381 234.55ZM265.381 229.38C267.544 229.38 269.488 228.958 271.211 228.115C272.971 227.272 274.346 226.117 275.336 224.65C276.363 223.147 276.839 221.442 276.766 219.535C276.839 217.592 276.363 215.887 275.336 214.42C274.346 212.953 272.971 211.798 271.211 210.955C269.488 210.112 267.544 209.69 265.381 209.69C263.218 209.69 261.256 210.112 259.496 210.955C257.773 211.798 256.398 212.972 255.371 214.475C254.381 215.942 253.904 217.628 253.941 219.535C253.904 221.442 254.381 223.147 255.371 224.65C256.398 226.117 257.773 227.272 259.496 228.115C261.256 228.958 263.218 229.38 265.381 229.38ZM300.674 234.55C297.557 234.55 294.807 233.908 292.424 232.625C290.077 231.342 288.244 229.563 286.924 227.29C285.64 225.017 284.999 222.432 284.999 219.535C284.999 216.602 285.677 214.017 287.034 211.78C288.39 209.507 290.26 207.728 292.644 206.445C295.027 205.162 297.74 204.52 300.784 204.52C302.617 204.52 304.34 204.758 305.954 205.235C307.567 205.712 308.979 206.353 310.189 207.16C311.435 207.967 312.389 208.828 313.049 209.745C313.745 210.662 314.094 211.578 314.094 212.495L312.444 212.605V193.3H318.109V234H312.444V226.52L313.544 226.74C313.544 227.62 313.177 228.518 312.444 229.435C311.747 230.315 310.794 231.158 309.584 231.965C308.41 232.735 307.035 233.358 305.459 233.835C303.919 234.312 302.324 234.55 300.674 234.55ZM301.719 229.49C303.882 229.49 305.789 229.05 307.439 228.17C309.089 227.29 310.372 226.098 311.289 224.595C312.205 223.092 312.664 221.405 312.664 219.535C312.664 217.665 312.205 215.978 311.289 214.475C310.372 212.972 309.089 211.798 307.439 210.955C305.789 210.075 303.882 209.635 301.719 209.635C299.592 209.635 297.704 210.075 296.054 210.955C294.404 211.798 293.102 212.972 292.149 214.475C291.232 215.978 290.774 217.665 290.774 219.535C290.774 221.405 291.232 223.092 292.149 224.595C293.102 226.098 294.404 227.29 296.054 228.17C297.704 229.05 299.592 229.49 301.719 229.49ZM340.622 234.55C337.176 234.55 334.114 233.927 331.437 232.68C328.761 231.397 326.671 229.655 325.167 227.455C323.664 225.218 322.912 222.688 322.912 219.865C322.912 217.518 323.352 215.41 324.232 213.54C325.112 211.633 326.341 210.02 327.917 208.7C329.494 207.343 331.327 206.298 333.417 205.565C335.507 204.832 337.744 204.465 340.127 204.465C342.291 204.465 344.326 204.813 346.232 205.51C348.139 206.207 349.807 207.178 351.237 208.425C352.667 209.672 353.767 211.157 354.537 212.88C355.307 214.567 355.674 216.437 355.637 218.49L355.582 221.24H327.697L326.432 216.73H350.687L349.862 217.335V216.015C349.716 214.768 349.166 213.668 348.212 212.715C347.259 211.762 346.067 211.028 344.637 210.515C343.244 209.965 341.741 209.69 340.127 209.69C337.854 209.69 335.837 210.038 334.077 210.735C332.317 211.395 330.942 212.458 329.952 213.925C328.999 215.355 328.522 217.207 328.522 219.48C328.522 221.46 329.054 223.202 330.117 224.705C331.217 226.172 332.739 227.308 334.682 228.115C336.662 228.922 338.917 229.325 341.447 229.325C343.757 229.325 345.719 229.013 347.332 228.39C348.982 227.73 350.449 226.923 351.732 225.97L354.372 230.15C353.382 230.957 352.136 231.69 350.632 232.35C349.166 233.01 347.552 233.542 345.792 233.945C344.069 234.348 342.346 234.55 340.622 234.55ZM362.474 234V205.125H368.194V215.025L367.039 213.87C367.515 212.147 368.34 210.588 369.514 209.195C370.724 207.765 372.099 206.628 373.639 205.785C375.215 204.942 376.847 204.52 378.534 204.52C379.56 204.52 380.55 204.63 381.504 204.85C382.494 205.07 383.264 205.345 383.814 205.675L382.329 211.67C381.669 211.303 380.88 211.028 379.964 210.845C379.084 210.625 378.24 210.515 377.434 210.515C376.077 210.515 374.83 210.753 373.694 211.23C372.594 211.707 371.622 212.348 370.779 213.155C369.972 213.962 369.33 214.86 368.854 215.85C368.414 216.84 368.194 217.885 368.194 218.985V234H362.474ZM399.502 234.55C396.532 234.55 393.818 234.128 391.362 233.285C388.942 232.442 386.925 231.085 385.312 229.215L389.162 225.805C390.445 227.125 391.93 228.133 393.617 228.83C395.34 229.49 397.247 229.82 399.337 229.82C400.143 229.82 400.968 229.765 401.812 229.655C402.655 229.545 403.425 229.343 404.122 229.05C404.855 228.757 405.423 228.372 405.827 227.895C406.267 227.418 406.487 226.85 406.487 226.19C406.487 225.09 405.753 224.247 404.287 223.66C403.553 223.403 402.673 223.147 401.647 222.89C400.62 222.597 399.447 222.322 398.127 222.065C395.927 221.588 394.002 221.075 392.352 220.525C390.702 219.975 389.363 219.26 388.337 218.38C387.567 217.683 386.98 216.895 386.577 216.015C386.173 215.098 385.972 214.053 385.972 212.88C385.972 211.597 386.302 210.46 386.962 209.47C387.622 208.443 388.52 207.563 389.657 206.83C390.83 206.06 392.187 205.492 393.727 205.125C395.267 204.722 396.935 204.52 398.732 204.52C400.308 204.52 401.903 204.685 403.517 205.015C405.167 205.345 406.725 205.858 408.192 206.555C409.658 207.252 410.887 208.113 411.877 209.14L408.797 212.88C407.917 212.183 406.908 211.56 405.772 211.01C404.635 210.423 403.462 209.983 402.252 209.69C401.078 209.36 399.96 209.195 398.897 209.195C398.017 209.195 397.155 209.25 396.312 209.36C395.468 209.47 394.68 209.672 393.947 209.965C393.25 210.222 392.682 210.588 392.242 211.065C391.838 211.505 391.637 212.037 391.637 212.66C391.673 213.1 391.802 213.522 392.022 213.925C392.278 214.292 392.627 214.622 393.067 214.915C393.727 215.355 394.643 215.758 395.817 216.125C397.027 216.455 398.402 216.767 399.942 217.06C401.885 217.427 403.663 217.867 405.277 218.38C406.89 218.893 408.228 219.535 409.292 220.305C410.208 220.928 410.887 221.68 411.327 222.56C411.803 223.403 412.042 224.393 412.042 225.53C412.042 227.4 411.473 229.013 410.337 230.37C409.237 231.727 407.733 232.772 405.827 233.505C403.92 234.202 401.812 234.55 399.502 234.55Z" fill="#0085FF"/>
<path d="M131.502 188L94.3496 87.2H111.486L132.798 146.384C133.566 148.496 134.334 150.752 135.102 153.152C135.87 155.552 136.638 158 137.406 160.496C138.174 162.896 138.894 165.248 139.566 167.552C140.238 169.76 140.862 171.824 141.438 173.744L135.102 173.6C136.062 171.008 137.118 168.176 138.27 165.104C139.518 161.936 140.814 158.768 142.158 155.6C143.502 152.336 144.798 149.264 146.046 146.384L164.622 104.624H179.598L197.598 146.096C198.846 148.784 200.094 151.712 201.342 154.88C202.686 158.048 203.934 161.12 205.086 164.096C206.334 167.072 207.246 169.808 207.822 172.304L202.062 173.312C202.542 171.68 203.022 170 203.502 168.272C204.078 166.448 204.654 164.576 205.23 162.656C205.806 160.64 206.43 158.672 207.102 156.752C207.774 154.736 208.446 152.768 209.118 150.848C209.886 148.928 210.606 147.104 211.278 145.376L234.894 87.2H251.598L210.126 188H199.326L170.094 120.176L172.83 120.752L143.454 188H131.502Z" fill="#0085FF"/>
<path d="M244.57 188.55C240.757 188.55 237.365 187.927 234.395 186.68C231.425 185.397 229.097 183.655 227.41 181.455C225.76 179.218 224.935 176.688 224.935 173.865C224.935 171.445 225.43 169.3 226.42 167.43C227.447 165.523 228.84 163.91 230.6 162.59C232.397 161.27 234.45 160.262 236.76 159.565C239.07 158.832 241.509 158.465 244.075 158.465C246.495 158.465 248.769 158.813 250.895 159.51C253.022 160.17 254.892 161.123 256.505 162.37C258.119 163.617 259.365 165.102 260.245 166.825C261.162 168.512 261.602 170.4 261.565 172.49L261.51 175.46H230.215L228.95 170.95H256.615L255.79 171.335V170.015C255.607 168.768 254.929 167.668 253.755 166.715C252.619 165.762 251.189 165.028 249.465 164.515C247.779 163.965 245.982 163.69 244.075 163.69C241.582 163.69 239.309 164.002 237.255 164.625C235.202 165.248 233.57 166.275 232.36 167.705C231.15 169.135 230.545 171.06 230.545 173.48C230.545 175.46 231.187 177.183 232.47 178.65C233.754 180.117 235.532 181.253 237.805 182.06C240.079 182.867 242.7 183.27 245.67 183.27C248.64 183.27 251.097 182.885 253.04 182.115C254.984 181.345 256.56 180.612 257.77 179.915L260.245 184.205C259.145 184.938 257.752 185.653 256.065 186.35C254.415 187.01 252.6 187.542 250.62 187.945C248.64 188.348 246.624 188.55 244.57 188.55ZM285.802 188.55C283.895 188.55 282.08 188.293 280.357 187.78C278.67 187.267 277.167 186.625 275.847 185.855C274.527 185.085 273.445 184.26 272.602 183.38C271.759 182.5 271.227 181.712 271.007 181.015L273.537 180.795V187.835H267.872V147.3H273.537V165.725L271.557 165.78C271.777 165.047 272.29 164.277 273.097 163.47C273.94 162.627 275.004 161.838 276.287 161.105C277.607 160.335 279.11 159.712 280.797 159.235C282.484 158.758 284.28 158.52 286.187 158.52C289.414 158.52 292.329 159.162 294.932 160.445C297.535 161.728 299.607 163.488 301.147 165.725C302.724 167.962 303.512 170.547 303.512 173.48C303.512 176.377 302.742 178.962 301.202 181.235C299.699 183.508 297.609 185.305 294.932 186.625C292.292 187.908 289.249 188.55 285.802 188.55ZM285.417 183.27C287.874 183.27 290.037 182.848 291.907 182.005C293.814 181.125 295.299 179.952 296.362 178.485C297.462 176.982 298.012 175.313 298.012 173.48C298.012 171.61 297.462 169.942 296.362 168.475C295.299 167.008 293.814 165.853 291.907 165.01C290.037 164.167 287.874 163.745 285.417 163.745C282.96 163.745 280.76 164.167 278.817 165.01C276.91 165.853 275.407 167.008 274.307 168.475C273.244 169.942 272.712 171.61 272.712 173.48C272.712 175.313 273.244 176.982 274.307 178.485C275.407 179.952 276.91 181.125 278.817 182.005C280.76 182.848 282.96 183.27 285.417 183.27Z" fill="#0085FF"/>
</g>
<defs>
<filter id="filter0_di_2_11" x="50.7516" y="51.2" width="364.29" height="217.8" filterUnits="userSpaceOnUse" color-interpolation-filters="sRGB">
<feFlood flood-opacity="0" result="BackgroundImageFix"/>
<feColorMatrix in="SourceAlpha" type="matrix" values="0 0 0 0 0 0 0 0 0 0 0 0 0 0 0 0 0 0 127 0" result="hardAlpha"/>
<feOffset dx="3" dy="3"/>
<feComposite in2="hardAlpha" operator="out"/>
<feColorMatrix type="matrix" values="0 0 0 0 0 0 0 0 0 0 0 0 0 0 0 0 0 0 0.25 0"/>
<feBlend mode="normal" in2="BackgroundImageFix" result="effect1_dropShadow_2_11"/>
<feBlend mode="normal" in="SourceGraphic" in2="effect1_dropShadow_2_11" result="shape"/>
<feColorMatrix in="SourceAlpha" type="matrix" values="0 0 0 0 0 0 0 0 0 0 0 0 0 0 0 0 0 0 127 0" result="hardAlpha"/>
<feOffset dx="3" dy="2"/>
<feComposite in2="hardAlpha" operator="arithmetic" k2="-1" k3="1"/>
<feColorMatrix type="matrix" values="0 0 0 0 0 0 0 0 0 0 0 0 0 0 0 0 0 0 0.05 0"/>
<feBlend mode="normal" in2="shape" result="effect2_innerShadow_2_11"/>
</filter>
</defs>
</svg>